<?xml version="1.0" encoding="UTF-8" standalone="no"?><!DOCTYPE svg PUBLIC "-//W3C//DTD SVG 1.1//EN" "http://www.w3.org/Graphics/SVG/1.1/DTD/svg11.dtd"><svg width="100%" height="100%" viewBox="0 0 569 472" version="1.1" xmlns="http://www.w3.org/2000/svg" xmlns:xlink="http://www.w3.org/1999/xlink" xml:space="preserve" xmlns:serif="http://www.serif.com/" style="fill-rule:evenodd;clip-rule:evenodd;stroke-linejoin:round;stroke-miterlimit:1.41421;"><path d="M245.629,33.662l-11.303,1.998l-5.355,-30.371l11.3,-1.992l5.358,30.365Z" style="fill:#231f20;fill-rule:nonzero;"/><path d="M162.267,61.989l-9.933,5.741l-15.422,-26.699l9.936,-5.74l15.419,26.698Z" style="fill:#231f20;fill-rule:nonzero;"/><path d="M93.624,117.124l-7.374,8.79l-23.621,-19.818l7.373,-8.791l23.622,19.819Z" style="fill:#231f20;fill-rule:nonzero;"/><path d="M47.977,192.412l-3.926,10.783l-28.973,-10.545l3.927,-10.783l28.972,10.545Z" style="fill:#231f20;fill-rule:nonzero;"/><rect x="0" y="278.767" width="30.832" height="11.481" style="fill:#231f20;fill-rule:nonzero;"/><path d="M44.258,365.78l3.926,10.791l-28.973,10.546l-3.926,-10.785l28.973,-10.552Z" style="fill:#231f20;fill-rule:nonzero;"/><path d="M86.637,442.959l7.378,8.788l-23.62,19.821l-7.378,-8.793l23.62,-19.816Z" style="fill:#231f20;fill-rule:nonzero;"/><path d="M474.949,451.285l7.372,-8.793l23.623,19.822l-7.378,8.784l-23.617,-19.813Z" style="fill:#231f20;fill-rule:nonzero;"/><path d="M520.598,375.997l3.916,-10.782l28.981,10.542l-3.934,10.779l-28.963,-10.539Z" style="fill:#231f20;fill-rule:nonzero;"/><path d="M537.743,289.642l-0.006,-11.481l30.835,0l-0.004,11.472l-30.825,0.009Z" style="fill:#231f20;fill-rule:nonzero;"/><path d="M524.315,202.63l-3.925,-10.792l28.969,-10.542l3.921,10.782l-28.965,10.552Z" style="fill:#231f20;fill-rule:nonzero;"/><path d="M481.936,125.451l-7.379,-8.791l23.624,-19.819l7.372,8.791l-23.617,19.819Z" style="fill:#231f20;fill-rule:nonzero;"/><path d="M415.72,67.427l-9.944,-5.737l15.424,-26.705l9.93,5.743l-15.41,26.699Z" style="fill:#231f20;fill-rule:nonzero;"/><path d="M333.654,35.543l-11.312,-1.989l5.367,-30.365l11.292,1.993l-5.347,30.361Z" style="fill:#231f20;fill-rule:nonzero;"/><rect x="281.111" y="0" width="5.745" height="25.095" style="fill:#231f20;fill-rule:nonzero;"/><path d="M198.205,39.714l-5.388,1.965l-8.59,-23.577l5.397,-1.967l8.581,23.579Z" style="fill:#231f20;fill-rule:nonzero;"/><path d="M119.917,83.769l-4.401,3.691l-16.131,-19.225l4.396,-3.694l16.136,19.228Z" style="fill:#231f20;fill-rule:nonzero;"/><path d="M61.403,151.947l-2.869,4.97l-21.734,-12.55l2.865,-4.967l21.738,12.547Z" style="fill:#231f20;fill-rule:nonzero;"/><path d="M29.742,236.019l-0.995,5.655l-24.721,-4.357l0.999,-5.648l24.717,4.35Z" style="fill:#231f20;fill-rule:nonzero;"/><path d="M28.747,325.857l0.995,5.652l-24.717,4.363l-0.999,-5.657l24.721,-4.358Z" style="fill:#231f20;fill-rule:nonzero;"/><path d="M58.534,410.621l2.869,4.97l-21.738,12.547l-2.865,-4.976l21.734,-12.541Z" style="fill:#231f20;fill-rule:nonzero;"/><path d="M506.567,415.591l2.866,-4.97l21.73,12.541l-2.87,4.976l-21.726,-12.547Z" style="fill:#231f20;fill-rule:nonzero;"/><path d="M538.223,331.509l1.004,-5.652l24.707,4.358l-0.995,5.651l-24.716,-4.357Z" style="fill:#231f20;fill-rule:nonzero;"/><path d="M539.227,241.674l-1.004,-5.655l24.716,-4.35l0.995,5.648l-24.707,4.357Z" style="fill:#231f20;fill-rule:nonzero;"/><path d="M509.433,156.917l-2.866,-4.97l21.726,-12.544l2.87,4.964l-21.73,12.55Z" style="fill:#231f20;fill-rule:nonzero;"/><path d="M452.452,87.46l-4.396,-3.691l16.128,-19.218l4.396,3.684l-16.128,19.225Z" style="fill:#231f20;fill-rule:nonzero;"/><path d="M286.856,25.095l-5.745,0l0.003,-25.095l5.734,0l0.008,25.095Z" style="fill:#231f20;fill-rule:nonzero;"/><path d="M198.079,39.847l-5.399,1.967l-8.579,-23.589l5.391,-1.958l8.587,23.58Z" style="fill:#231f20;fill-rule:nonzero;"/><path d="M119.699,84.06l-4.392,3.697l-16.134,-19.228l4.395,-3.688l16.131,19.219Z" style="fill:#231f20;fill-rule:nonzero;"/><path d="M61.175,152.428l-2.871,4.969l-21.733,-12.547l2.868,-4.967l21.736,12.545Z" style="fill:#231f20;fill-rule:nonzero;"/><path d="M29.556,236.682l-0.996,5.653l-24.714,-4.358l1,-5.651l24.71,4.356Z" style="fill:#231f20;fill-rule:nonzero;"/><path d="M28.665,326.672l0.996,5.648l-24.709,4.36l-0.999,-5.657l24.712,-4.351Z" style="fill:#231f20;fill-rule:nonzero;"/><path d="M58.607,411.533l2.869,4.974l-21.733,12.55l-2.863,-4.979l21.727,-12.545Z" style="fill:#231f20;fill-rule:nonzero;"/><path d="M507.4,415.976l2.867,-4.957l21.726,12.54l-2.86,4.968l-21.733,-12.551Z" style="fill:#231f20;fill-rule:nonzero;"/><path d="M539.013,331.727l0.998,-5.652l24.709,4.352l-0.991,5.657l-24.716,-4.357Z" style="fill:#231f20;fill-rule:nonzero;"/><path d="M539.903,241.741l-0.995,-5.652l24.713,-4.36l0.998,5.649l-24.716,4.363Z" style="fill:#231f20;fill-rule:nonzero;"/><path d="M509.964,156.873l-2.864,-4.97l21.727,-12.551l2.866,4.977l-21.729,12.544Z" style="fill:#231f20;fill-rule:nonzero;"/><path d="M452.8,87.366l-4.393,-3.688l16.129,-19.226l4.397,3.694l-16.133,19.22Z" style="fill:#231f20;fill-rule:nonzero;"/><path d="M375.317,41.602l-5.39,-1.967l8.582,-23.58l5.386,1.965l-8.578,23.582Z" style="fill:#231f20;fill-rule:nonzero;"/><path d="M198.205,39.714l-5.388,1.965l-8.59,-23.577l5.397,-1.967l8.581,23.579Z" style="fill:#231f20;fill-rule:nonzero;"/><path d="M119.917,83.769l-4.401,3.691l-16.131,-19.225l4.396,-3.684l16.136,19.218Z" style="fill:#231f20;fill-rule:nonzero;"/><path d="M61.403,151.947l-2.869,4.97l-21.734,-12.55l2.865,-4.964l21.738,12.544Z" style="fill:#231f20;fill-rule:nonzero;"/><path d="M29.742,236.019l-0.995,5.655l-24.721,-4.357l1.004,-5.648l24.712,4.35Z" style="fill:#231f20;fill-rule:nonzero;"/><path d="M28.747,325.857l0.995,5.652l-24.717,4.357l-0.992,-5.651l24.714,-4.358Z" style="fill:#231f20;fill-rule:nonzero;"/><path d="M58.534,410.621l2.869,4.97l-21.738,12.547l-2.865,-4.976l21.734,-12.541Z" style="fill:#231f20;fill-rule:nonzero;"/><path d="M506.567,415.591l2.866,-4.97l21.73,12.541l-2.87,4.976l-21.726,-12.547Z" style="fill:#231f20;fill-rule:nonzero;"/><path d="M295.87,283.456c0,6.622 -5.37,11.983 -11.985,11.983c-6.622,0 -11.986,-5.361 -11.986,-11.983c0,-6.617 5.364,-11.985 11.986,-11.985c6.615,0 11.985,5.368 11.985,11.985Z" style="fill:#70cddd;fill-rule:nonzero;"/><path d="M113.154,281.903c0,2.978 -2.413,5.396 -5.391,5.396c-2.978,0 -5.398,-2.418 -5.398,-5.396c0,-2.977 2.42,-5.39 5.398,-5.39c2.978,0 5.391,2.413 5.391,5.39Z" style="fill:#70cddd;fill-rule:nonzero;"/><path d="M116.979,317.392c0.62,2.909 -1.239,5.772 -4.155,6.398c-2.913,0.615 -5.778,-1.245 -6.397,-4.156c-0.621,-2.911 1.239,-5.778 4.155,-6.397c2.911,-0.619 5.782,1.238 6.397,4.155Z" style="fill:#70cddd;fill-rule:nonzero;"/><path d="M128.098,351.306c1.212,2.724 -0.013,5.913 -2.734,7.124c-2.724,1.208 -5.906,-0.013 -7.119,-2.735c-1.212,-2.721 0.016,-5.914 2.731,-7.127c2.725,-1.205 5.91,0.018 7.122,2.738Z" style="fill:#70cddd;fill-rule:nonzero;"/><path d="M146.032,382.167c1.749,2.408 1.216,5.781 -1.193,7.533c-2.413,1.753 -5.785,1.223 -7.537,-1.19c-1.753,-2.413 -1.216,-5.785 1.184,-7.531c2.418,-1.753 5.793,-1.221 7.546,1.188Z" style="fill:#70cddd;fill-rule:nonzero;"/><path d="M422.27,381.428c1.755,-2.41 5.125,-2.94 7.537,-1.187c2.41,1.749 2.946,5.117 1.197,7.533c-1.758,2.409 -5.128,2.94 -7.537,1.191c-2.409,-1.752 -2.946,-5.128 -1.197,-7.537Z" style="fill:#70cddd;fill-rule:nonzero;"/><path d="M440.037,350.475c1.21,-2.724 4.393,-3.946 7.124,-2.734c2.718,1.207 3.943,4.398 2.73,7.121c-1.218,2.724 -4.401,3.946 -7.123,2.737c-2.717,-1.219 -3.943,-4.405 -2.731,-7.124Z" style="fill:#70cddd;fill-rule:nonzero;"/><path d="M450.977,316.496c0.617,-2.912 3.477,-4.774 6.394,-4.149c2.911,0.616 4.774,3.479 4.156,6.397c-0.619,2.91 -3.486,4.77 -6.397,4.151c-2.915,-0.622 -4.778,-3.482 -4.153,-6.399Z" style="fill:#70cddd;fill-rule:nonzero;"/><path d="M454.615,280.991c0,-2.978 2.406,-5.391 5.387,-5.391c2.977,0 5.395,2.407 5.395,5.397c-0.003,2.977 -2.418,5.393 -5.395,5.393c-2.981,0 -5.393,-2.421 -5.387,-5.399Z" style="fill:#70cddd;fill-rule:nonzero;"/><path d="M450.785,245.505c-0.622,-2.915 1.234,-5.776 4.155,-6.398c2.911,-0.619 5.782,1.244 6.397,4.162c0.622,2.911 -1.24,5.772 -4.155,6.387c-2.915,0.625 -5.778,-1.237 -6.397,-4.151Z" style="fill:#70cddd;fill-rule:nonzero;"/><path d="M439.665,211.595c-1.213,-2.722 0.013,-5.915 2.734,-7.127c2.719,-1.207 5.91,0.009 7.126,2.737c1.209,2.725 -0.018,5.907 -2.737,7.12c-2.722,1.206 -5.914,-0.016 -7.123,-2.73Z" style="fill:#70cddd;fill-rule:nonzero;"/><path d="M421.74,180.727c-1.756,-2.409 -1.226,-5.778 1.193,-7.533c2.41,-1.75 5.779,-1.219 7.531,1.195c1.753,2.41 1.213,5.779 -1.197,7.534c-2.409,1.747 -5.778,1.216 -7.527,-1.196Z" style="fill:#70cddd;fill-rule:nonzero;"/><path d="M397.785,154.262c-2.217,-1.992 -2.394,-5.399 -0.399,-7.61c1.993,-2.21 5.4,-2.393 7.617,-0.397c2.217,1.992 2.39,5.399 0.396,7.612c-1.997,2.213 -5.404,2.394 -7.614,0.395Z" style="fill:#70cddd;fill-rule:nonzero;"/><path d="M368.853,133.363c-2.583,-1.488 -3.466,-4.787 -1.973,-7.367c1.484,-2.579 4.787,-3.463 7.367,-1.973c2.579,1.487 3.463,4.793 1.973,7.367c-1.488,2.579 -4.793,3.467 -7.367,1.973Z" style="fill:#70cddd;fill-rule:nonzero;"/><path d="M336.206,118.927c-2.832,-0.913 -4.386,-3.954 -3.46,-6.788c0.922,-2.833 3.962,-4.383 6.794,-3.461c2.836,0.925 4.386,3.965 3.464,6.795c-0.925,2.83 -3.966,4.389 -6.798,3.454Z" style="fill:#70cddd;fill-rule:nonzero;"/><path d="M301.272,111.605c-2.962,-0.312 -5.115,-2.961 -4.802,-5.92c0.315,-2.971 2.964,-5.122 5.939,-4.806c2.961,0.309 5.103,2.968 4.793,5.933c-0.313,2.955 -2.965,5.105 -5.93,4.793Z" style="fill:#70cddd;fill-rule:nonzero;"/><path d="M265.581,111.703c-2.965,0.312 -5.617,-1.838 -5.93,-4.799c-0.309,-2.965 1.841,-5.62 4.806,-5.93c2.962,-0.313 5.62,1.841 5.927,4.8c0.309,2.965 -1.838,5.619 -4.803,5.929Z" style="fill:#70cddd;fill-rule:nonzero;"/><path d="M230.688,119.215c-2.832,0.922 -5.876,-0.629 -6.794,-3.461c-0.919,-2.835 0.628,-5.876 3.467,-6.798c2.828,-0.925 5.872,0.635 6.788,3.463c0.922,2.833 -0.625,5.884 -3.461,6.796Z" style="fill:#70cddd;fill-rule:nonzero;"/><path d="M198.123,133.817c-2.586,1.497 -5.882,0.61 -7.363,-1.967c-1.497,-2.583 -0.613,-5.882 1.97,-7.376c2.58,-1.484 5.882,-0.593 7.367,1.975c1.49,2.581 0.605,5.884 -1.974,7.368Z" style="fill:#70cddd;fill-rule:nonzero;"/><path d="M169.302,154.878c-2.213,1.995 -5.623,1.812 -7.616,-0.399c-1.992,-2.213 -1.818,-5.63 0.405,-7.622c2.21,-1.995 5.62,-1.809 7.609,0.399c1.995,2.219 1.818,5.626 -0.398,7.622Z" style="fill:#70cddd;fill-rule:nonzero;"/><path d="M145.489,181.466c-1.749,2.409 -5.124,2.946 -7.534,1.194c-2.406,-1.752 -2.946,-5.122 -1.187,-7.541c1.746,-2.406 5.125,-2.936 7.531,-1.19c2.405,1.752 2.949,5.125 1.19,7.537Z" style="fill:#70cddd;fill-rule:nonzero;"/><path d="M127.725,212.424c-1.212,2.722 -4.398,3.943 -7.121,2.738c-2.714,-1.216 -3.945,-4.401 -2.727,-7.129c1.213,-2.719 4.404,-3.945 7.114,-2.732c2.722,1.212 3.953,4.399 2.734,7.123Z" style="fill:#70cddd;fill-rule:nonzero;"/><path d="M116.785,246.391c-0.619,2.921 -3.477,4.784 -6.397,4.163c-2.908,-0.617 -4.774,-3.481 -4.147,-6.402c0.619,-2.914 3.485,-4.77 6.394,-4.154c2.911,0.625 4.778,3.485 4.15,6.393Z" style="fill:#70cddd;fill-rule:nonzero;"/><path d="M113.154,427.39l-0.063,0l-3.818,2.062l-0.57,-2.267l4.79,-2.557l2.529,0l0,21.94l-2.868,0l0,-19.178Z" style="fill:#fff;fill-rule:nonzero;"/><path d="M126.702,435.697c0,5.699 1.759,8.94 4.458,8.94c3.044,0 4.487,-3.538 4.487,-9.145c0,-5.405 -1.379,-8.945 -4.455,-8.945c-2.595,0 -4.49,3.176 -4.49,9.15Zm11.914,-0.345c0,7.468 -2.767,11.582 -7.619,11.582c-4.295,0 -7.19,-4.015 -7.264,-11.275c0,-7.359 3.178,-11.407 7.63,-11.407c4.622,0 7.253,4.12 7.253,11.1Z" style="fill:#fff;fill-rule:nonzero;"/><path d="M67.063,373.841l0,-1.822l2.331,-2.264c5.599,-5.34 8.137,-8.174 8.174,-11.481c0,-2.222 -1.086,-4.291 -4.355,-4.291c-1.999,0 -3.653,1.014 -4.664,1.854l-0.947,-2.086c1.52,-1.282 3.684,-2.224 6.212,-2.224c4.727,0 6.721,3.239 6.721,6.384c0,4.045 -2.941,7.319 -7.561,11.77l-1.76,1.624l0,0.07l9.859,0l0,2.466l-14.01,0Z" style="fill:#fff;fill-rule:nonzero;"/><path d="M87.059,362.963c0,5.709 1.751,8.954 4.453,8.954c3.042,0 4.494,-3.549 4.494,-9.155c0,-5.404 -1.389,-8.943 -4.463,-8.943c-2.589,0 -4.484,3.174 -4.484,9.144Zm11.913,-0.331c0,7.461 -2.765,11.581 -7.625,11.581c-4.288,0 -7.189,-4.026 -7.258,-11.282c0,-7.356 3.173,-11.404 7.625,-11.404c4.627,0 7.258,4.117 7.258,11.105Z" style="fill:#fff;fill-rule:nonzero;"/><path d="M52.281,288.369c0.846,0.553 2.803,1.393 4.862,1.393c3.813,0 4.997,-2.428 4.967,-4.256c-0.036,-3.069 -2.809,-4.38 -5.679,-4.38l-1.656,0l0,-2.236l1.656,0c2.158,0 4.895,-1.111 4.895,-3.712c0,-1.759 -1.111,-3.31 -3.845,-3.31c-1.759,0 -3.443,0.781 -4.39,1.453l-0.777,-2.156c1.148,-0.853 3.376,-1.693 5.737,-1.693c4.324,0 6.281,2.567 6.281,5.229c0,2.264 -1.346,4.189 -4.052,5.166l0,0.069c2.706,0.539 4.897,2.564 4.897,5.639c0,3.508 -2.739,6.583 -8.004,6.583c-2.463,0 -4.621,-0.773 -5.699,-1.483l0.807,-2.306Z" style="fill:#fff;fill-rule:nonzero;"/><path d="M71.57,280.911c0,5.709 1.748,8.952 4.45,8.952c3.037,0 4.488,-3.546 4.488,-9.147c0,-5.403 -1.383,-8.952 -4.455,-8.952c-2.596,0 -4.483,3.177 -4.483,9.147Zm11.912,-0.334c0,7.464 -2.766,11.581 -7.627,11.581c-4.285,0 -7.189,-4.02 -7.263,-11.271c0,-7.364 3.173,-11.415 7.631,-11.415c4.62,0 7.259,4.118 7.259,11.105Z" style="fill:#fff;fill-rule:nonzero;"/><path d="M71.336,212.188l0,-7.32c0,-1.155 0.036,-2.301 0.101,-3.447l-0.101,0c-0.676,1.281 -1.213,2.226 -1.824,3.237l-5.366,7.466l0,0.064l7.19,0Zm0,8.3l0,-5.97l-10.2,0l0,-1.954l9.795,-14.016l3.207,0l0,13.64l3.069,0l0,2.33l-3.069,0l0,5.97l-2.802,0Z" style="fill:#fff;fill-rule:nonzero;"/><path d="M82.146,209.62c0,5.712 1.756,8.948 4.464,8.948c3.029,0 4.482,-3.539 4.482,-9.149c0,-5.4 -1.383,-8.946 -4.457,-8.946c-2.601,0 -4.489,3.174 -4.489,9.147Zm11.918,-0.334c0,7.457 -2.772,11.575 -7.631,11.575c-4.287,0 -7.19,-4.016 -7.252,-11.272c0,-7.364 3.167,-11.414 7.623,-11.414c4.628,0 7.26,4.12 7.26,11.111Z" style="fill:#fff;fill-rule:nonzero;"/><path d="M115.132,136.936l-8.368,0l-0.84,5.637c0.503,-0.066 0.978,-0.136 1.785,-0.136c1.688,0 3.372,0.37 4.723,1.187c1.724,0.975 3.142,2.87 3.142,5.634c0,4.29 -3.408,7.494 -8.168,7.494c-2.398,0 -4.419,-0.677 -5.472,-1.354l0.744,-2.261c0.911,0.543 2.703,1.222 4.698,1.222c2.796,0 5.189,-1.825 5.189,-4.761c-0.027,-2.841 -1.921,-4.862 -6.308,-4.862c-1.249,0 -2.228,0.135 -3.041,0.236l1.419,-10.536l10.497,0l0,2.5Z" style="fill:#fff;fill-rule:nonzero;"/><path d="M122.025,145.51c0,5.708 1.761,8.947 4.461,8.947c3.036,0 4.488,-3.542 4.488,-9.152c0,-5.394 -1.382,-8.943 -4.457,-8.943c-2.598,0 -4.492,3.174 -4.492,9.148Zm11.924,-0.338c0,7.464 -2.772,11.58 -7.633,11.58c-4.291,0 -7.186,-4.015 -7.253,-11.278c0,-7.356 3.172,-11.41 7.633,-11.41c4.619,0 7.253,4.123 7.253,11.108Z" style="fill:#fff;fill-rule:nonzero;"/><path d="M162.687,101.94c2.535,0 4.254,-2.132 4.254,-5.269c0,-3.136 -1.794,-5.027 -4.525,-5.027c-1.794,0 -3.442,1.111 -4.256,2.693c-0.202,0.342 -0.329,0.78 -0.329,1.32c0.06,3.609 1.715,6.283 4.822,6.283l0.034,0Zm5.093,-17.927c-0.599,-0.039 -1.383,0 -2.223,0.132c-4.66,0.78 -7.126,4.186 -7.631,7.799l0.107,0c1.042,-1.386 2.864,-2.532 5.295,-2.532c3.881,0 6.615,2.8 6.615,7.091c0,4.016 -2.734,7.732 -7.29,7.732c-4.695,0 -7.762,-3.653 -7.762,-9.355c0,-4.322 1.554,-7.723 3.711,-9.885c1.825,-1.791 4.256,-2.905 7.019,-3.244c0.884,-0.135 1.622,-0.17 2.159,-0.17l0,2.432Z" style="fill:#fff;fill-rule:nonzero;"/><path d="M175.254,92.989c0,5.706 1.752,8.951 4.452,8.951c3.044,0 4.496,-3.548 4.496,-9.156c0,-5.396 -1.389,-8.942 -4.461,-8.942c-2.599,0 -4.487,3.17 -4.487,9.147Zm11.909,-0.334c0,7.46 -2.762,11.58 -7.618,11.58c-4.291,0 -7.193,-4.018 -7.265,-11.281c0,-7.35 3.179,-11.408 7.631,-11.408c4.62,0 7.252,4.118 7.252,11.109Z" style="fill:#fff;fill-rule:nonzero;"/><path d="M239.273,54.516l0,1.951l-9.548,19.984l-3.072,0l9.514,-19.409l0,-0.07l-10.729,0l0,-2.456l13.835,0Z" style="fill:#fff;fill-rule:nonzero;"/><path d="M245.02,65.58c0,5.712 1.756,8.954 4.458,8.954c3.044,0 4.494,-3.548 4.494,-9.157c0,-5.399 -1.387,-8.942 -4.462,-8.942c-2.596,0 -4.49,3.17 -4.49,9.145Zm11.919,-0.332c0,7.458 -2.762,11.575 -7.628,11.575c-4.291,0 -7.187,-4.013 -7.259,-11.275c0,-7.357 3.176,-11.411 7.629,-11.411c4.625,0 7.258,4.121 7.258,11.111Z" style="fill:#fff;fill-rule:nonzero;"/><path d="M315.51,59.64c0,2.201 1.66,3.373 4.186,4.051c1.891,-0.637 3.344,-1.989 3.344,-3.984c0,-1.75 -1.049,-3.568 -3.714,-3.568c-2.466,0 -3.816,1.617 -3.816,3.501Zm8.173,10.97c0,-2.663 -1.862,-3.95 -4.827,-4.794c-2.571,0.742 -3.953,2.435 -3.953,4.524c-0.098,2.233 1.585,4.185 4.383,4.185c2.67,0 4.397,-1.684 4.397,-3.915Zm-7.504,-5.835c-2.425,-1.15 -3.471,-3.045 -3.471,-4.93c0,-3.478 2.936,-5.847 6.785,-5.847c4.257,0 6.382,2.677 6.382,5.406c0,1.857 -0.909,3.849 -3.612,5.133l0,0.101c2.734,1.08 4.42,3 4.42,5.668c0,3.818 -3.271,6.381 -7.458,6.381c-4.59,0 -7.366,-2.731 -7.366,-5.942c0,-2.772 1.655,-4.723 4.361,-5.87l-0.041,-0.1Z" style="fill:#fff;fill-rule:nonzero;"/><path d="M332.12,65.447c0,5.702 1.765,8.939 4.462,8.939c3.04,0 4.49,-3.533 4.49,-9.147c0,-5.394 -1.384,-8.942 -4.455,-8.942c-2.603,0 -4.497,3.175 -4.497,9.15Zm11.926,-0.341c0,7.467 -2.769,11.581 -7.628,11.581c-4.298,0 -7.194,-4.016 -7.263,-11.272c0,-7.362 3.177,-11.417 7.632,-11.417c4.622,0 7.259,4.124 7.259,11.108Z" style="fill:#fff;fill-rule:nonzero;"/><path d="M384.182,83.804c-2.503,0 -4.291,2.232 -4.291,5.336c0,2.737 1.659,4.654 4.218,4.654c1.996,0 3.55,-0.976 4.321,-2.293c0.172,-0.268 0.274,-0.602 0.274,-1.076c0,-3.745 -1.383,-6.621 -4.49,-6.621l-0.032,0Zm-5.37,17.966c0.641,0.059 1.382,0 2.393,-0.101c1.724,-0.238 3.347,-0.95 4.598,-2.132c1.446,-1.316 2.497,-3.239 2.901,-5.835l-0.102,0c-1.214,1.484 -2.966,2.36 -5.162,2.36c-3.949,0 -6.478,-2.972 -6.478,-6.72c0,-4.149 3.002,-7.796 7.489,-7.796c4.489,0 7.256,3.647 7.256,9.252c0,4.821 -1.62,8.199 -3.779,10.293c-1.693,1.651 -4.02,2.665 -6.378,2.936c-1.084,0.17 -2.028,0.208 -2.738,0.17l0,-2.427Z" style="fill:#fff;fill-rule:nonzero;"/><path d="M397.087,92.989c0,5.706 1.755,8.942 4.455,8.942c3.037,0 4.485,-3.539 4.485,-9.147c0,-5.396 -1.381,-8.942 -4.45,-8.942c-2.605,0 -4.49,3.17 -4.49,9.147Zm11.916,-0.334c0,7.46 -2.769,11.58 -7.625,11.58c-4.291,0 -7.196,-4.025 -7.262,-11.281c0,-7.357 3.173,-11.408 7.631,-11.408c4.623,0 7.256,4.118 7.256,11.109Z" style="fill:#fff;fill-rule:nonzero;"/><path d="M426.262,137.202l-0.067,0l-3.817,2.056l-0.574,-2.261l4.789,-2.561l2.539,0l0,21.941l-2.87,0l0,-19.175Z" style="fill:#fff;fill-rule:nonzero;"/><path d="M437.066,145.51c0,5.705 1.755,8.941 4.455,8.941c3.031,0 4.487,-3.54 4.487,-9.15c0,-5.399 -1.383,-8.939 -4.452,-8.939c-2.602,0 -4.49,3.167 -4.49,9.148Zm11.916,-0.338c0,7.454 -2.769,11.58 -7.632,11.58c-4.284,0 -7.189,-4.025 -7.257,-11.278c0,-7.365 3.175,-11.41 7.633,-11.41c4.623,0 7.256,4.114 7.256,11.108Z" style="fill:#fff;fill-rule:nonzero;"/><path d="M454.394,145.51c0,5.705 1.752,8.941 4.452,8.941c3.037,0 4.49,-3.54 4.49,-9.15c0,-5.399 -1.383,-8.939 -4.455,-8.939c-2.603,0 -4.487,3.167 -4.487,9.148Zm11.915,-0.338c0,7.454 -2.774,11.58 -7.634,11.58c-4.281,0 -7.186,-4.025 -7.255,-11.278c0,-7.365 3.179,-11.41 7.625,-11.41c4.626,0 7.264,4.114 7.264,11.108Z" style="fill:#fff;fill-rule:nonzero;"/><path d="M462.591,201.32l-0.064,0l-3.816,2.055l-0.572,-2.26l4.798,-2.567l2.527,0l0,21.94l-2.873,0l0,-19.168Z" style="fill:#fff;fill-rule:nonzero;"/><path d="M477.178,201.32l-0.07,0l-3.814,2.055l-0.577,-2.26l4.796,-2.567l2.532,0l0,21.94l-2.867,0l0,-19.168Z" style="fill:#fff;fill-rule:nonzero;"/><path d="M490.721,209.62c0,5.712 1.757,8.948 4.458,8.948c3.037,0 4.489,-3.552 4.489,-9.149c0,-5.403 -1.383,-8.946 -4.452,-8.946c-2.602,0 -4.495,3.174 -4.495,9.147Zm11.921,-0.334c0,7.457 -2.776,11.575 -7.625,11.575c-4.296,0 -7.195,-4.02 -7.261,-11.272c0,-7.364 3.17,-11.408 7.625,-11.408c4.628,0 7.261,4.114 7.261,11.105Z" style="fill:#fff;fill-rule:nonzero;"/><path d="M478.116,272.611l-0.066,0l-3.821,2.061l-0.565,-2.263l4.792,-2.564l2.526,0l0,21.941l-2.866,0l0,-19.175Z" style="fill:#fff;fill-rule:nonzero;"/><path d="M486.256,291.786l0,-1.822l2.323,-2.264c5.611,-5.333 8.137,-8.165 8.168,-11.48c0,-2.223 -1.073,-4.282 -4.354,-4.282c-1.989,0 -3.643,1.007 -4.653,1.854l-0.944,-2.093c1.518,-1.283 3.677,-2.227 6.21,-2.227c4.723,0 6.719,3.24 6.719,6.381c0,4.048 -2.946,7.326 -7.568,11.787l-1.753,1.613l0,0.07l9.858,0l0,2.463l-14.006,0Z" style="fill:#fff;fill-rule:nonzero;"/><path d="M506.239,280.915c0,5.705 1.765,8.948 4.464,8.948c3.037,0 4.489,-3.546 4.489,-9.147c0,-5.403 -1.382,-8.945 -4.457,-8.945c-2.601,0 -4.496,3.173 -4.496,9.144Zm11.922,-0.338c0,7.464 -2.77,11.581 -7.629,11.581c-4.293,0 -7.188,-4.016 -7.252,-11.271c0,-7.364 3.167,-11.415 7.625,-11.415c4.619,0 7.256,4.118 7.256,11.105Z" style="fill:#fff;fill-rule:nonzero;"/><path d="M462.644,354.665l-0.069,0l-3.811,2.057l-0.578,-2.258l4.793,-2.565l2.529,0l0,21.942l-2.864,0l0,-19.176Z" style="fill:#fff;fill-rule:nonzero;"/><path d="M471.485,370.43c0.843,0.537 2.803,1.386 4.865,1.386c3.811,0 4.993,-2.43 4.96,-4.256c-0.038,-3.065 -2.803,-4.388 -5.672,-4.388l-1.649,0l0,-2.226l1.649,0c2.162,0 4.893,-1.118 4.893,-3.714c0,-1.755 -1.115,-3.305 -3.849,-3.305c-1.751,0 -3.439,0.774 -4.385,1.446l-0.777,-2.159c1.145,-0.847 3.378,-1.687 5.737,-1.687c4.316,0 6.28,2.564 6.28,5.233c0,2.263 -1.352,4.186 -4.051,5.162l0,0.066c2.699,0.543 4.9,2.569 4.9,5.642c0,3.508 -2.744,6.583 -8.003,6.583c-2.464,0 -4.626,-0.777 -5.709,-1.484l0.811,-2.299Z" style="fill:#fff;fill-rule:nonzero;"/><path d="M490.77,362.972c0,5.703 1.756,8.945 4.458,8.945c3.038,0 4.491,-3.549 4.491,-9.147c0,-5.405 -1.389,-8.951 -4.458,-8.951c-2.602,0 -4.491,3.174 -4.491,9.153Zm11.916,-0.34c0,7.461 -2.768,11.581 -7.629,11.581c-4.287,0 -7.191,-4.016 -7.261,-11.272c0,-7.363 3.176,-11.414 7.635,-11.414c4.622,0 7.255,4.117 7.255,11.105Z" style="fill:#fff;fill-rule:nonzero;"/><path d="M411.317,427.388l-0.069,0l-3.815,2.064l-0.574,-2.264l4.79,-2.568l2.532,0l0,21.944l-2.864,0l0,-19.176Z" style="fill:#fff;fill-rule:nonzero;"/><path d="M428.633,438.259l0,-7.324c0,-1.151 0.034,-2.294 0.101,-3.444l-0.101,0c-0.679,1.281 -1.213,2.232 -1.82,3.239l-5.373,7.462l0,0.067l7.193,0Zm0,8.305l0,-5.975l-10.196,0l0,-1.955l9.788,-14.014l3.208,0l0,13.639l3.076,0l0,2.33l-3.076,0l0,5.975l-2.8,0Z" style="fill:#fff;fill-rule:nonzero;"/><path d="M439.45,435.694c0,5.702 1.752,8.943 4.455,8.943c3.037,0 4.489,-3.54 4.489,-9.145c0,-5.405 -1.385,-8.945 -4.458,-8.945c-2.601,0 -4.486,3.176 -4.486,9.147Zm11.916,-0.338c0,7.464 -2.769,11.578 -7.632,11.578c-4.284,0 -7.188,-4.015 -7.259,-11.275c0,-7.359 3.173,-11.407 7.632,-11.407c4.619,0 7.259,4.12 7.259,11.104Z" style="fill:#fff;fill-rule:nonzero;"/><path d="M158.261,388.334l0,-0.987l1.266,-1.225c3.025,-2.889 4.398,-4.426 4.417,-6.223c0,-1.205 -0.581,-2.32 -2.352,-2.32c-1.08,0 -1.983,0.543 -2.526,1.007l-0.518,-1.14c0.83,-0.698 1.992,-1.206 3.369,-1.206c2.557,0 3.64,1.762 3.64,3.461c0,2.185 -1.588,3.965 -4.101,6.381l-0.944,0.874l0,0.042l5.33,0l0,1.336l-7.581,0Z" style="fill:#bbbdc0;fill-rule:nonzero;"/><path d="M169.088,382.438c0,3.094 0.956,4.853 2.411,4.853c1.652,0 2.438,-1.916 2.438,-4.957c0,-2.931 -0.748,-4.853 -2.409,-4.853c-1.411,0 -2.44,1.721 -2.44,4.957Zm6.457,-0.176c0,4.043 -1.497,6.273 -4.124,6.273c-2.333,0 -3.903,-2.179 -3.944,-6.112c0,-3.992 1.724,-6.183 4.136,-6.183c2.505,0 3.932,2.232 3.932,6.022Z" style="fill:#bbbdc0;fill-rule:nonzero;"/><path d="M132.465,318.987l0,-3.973c0,-0.615 0.015,-1.24 0.047,-1.862l-0.047,0c-0.367,0.697 -0.654,1.203 -0.992,1.759l-2.905,4.044l0,0.032l3.897,0Zm0,4.505l0,-3.239l-5.526,0l0,-1.061l5.301,-7.599l1.74,0l0,7.394l1.667,0l0,1.266l-1.667,0l0,3.239l-1.515,0Z" style="fill:#bbbdc0;fill-rule:nonzero;"/><path d="M138.322,317.601c0,3.087 0.956,4.849 2.414,4.849c1.64,0 2.431,-1.922 2.431,-4.963c0,-2.93 -0.75,-4.849 -2.418,-4.849c-1.401,0 -2.427,1.717 -2.427,4.963Zm6.46,-0.189c0,4.048 -1.5,6.276 -4.137,6.276c-2.323,0 -3.896,-2.175 -3.931,-6.109c0,-3.995 1.725,-6.186 4.13,-6.186c2.507,0 3.938,2.236 3.938,6.019Z" style="fill:#bbbdc0;fill-rule:nonzero;"/><path d="M129.089,251.106c1.37,0 2.299,-1.156 2.299,-2.858c0,-1.701 -0.966,-2.728 -2.444,-2.728c-0.966,0 -1.872,0.601 -2.308,1.468c-0.11,0.174 -0.18,0.421 -0.18,0.714c0.042,1.954 0.925,3.404 2.608,3.404l0.025,0Zm2.757,-9.716c-0.322,-0.025 -0.749,0 -1.203,0.073c-2.523,0.426 -3.858,2.27 -4.133,4.228l0.05,0c0.578,-0.761 1.56,-1.378 2.877,-1.378c2.096,0 3.577,1.523 3.577,3.841c0,2.182 -1.481,4.195 -3.95,4.195c-2.538,0 -4.204,-1.979 -4.204,-5.073c0,-2.346 0.84,-4.186 2.013,-5.355c0.992,-0.97 2.305,-1.57 3.805,-1.756c0.47,-0.069 0.88,-0.088 1.168,-0.088l0,1.313Z" style="fill:#bbbdc0;fill-rule:nonzero;"/><path d="M135.9,246.253c0,3.097 0.944,4.853 2.409,4.853c1.642,0 2.44,-1.926 2.44,-4.964c0,-2.929 -0.754,-4.849 -2.421,-4.849c-1.402,0 -2.428,1.72 -2.428,4.96Zm6.457,-0.177c0,4.038 -1.507,6.273 -4.139,6.273c-2.318,0 -3.897,-2.181 -3.928,-6.115c0,-3.985 1.714,-6.179 4.133,-6.179c2.497,0 3.934,2.232 3.934,6.021Z" style="fill:#bbbdc0;fill-rule:nonzero;"/><path d="M153.455,188.746c0,1.188 0.891,1.823 2.264,2.195c1.026,-0.344 1.809,-1.077 1.809,-2.157c0,-0.946 -0.565,-1.938 -2.005,-1.938c-1.342,0 -2.068,0.881 -2.068,1.9Zm4.424,5.949c0,-1.445 -1.005,-2.147 -2.615,-2.604c-1.392,0.401 -2.137,1.323 -2.137,2.452c-0.06,1.213 0.859,2.271 2.371,2.271c1.449,0 2.381,-0.918 2.381,-2.119Zm-4.058,-3.17c-1.319,-0.618 -1.891,-1.642 -1.891,-2.671c0,-1.879 1.598,-3.16 3.679,-3.16c2.304,0 3.457,1.448 3.457,2.921c0,1.009 -0.492,2.089 -1.961,2.788l0,0.059c1.484,0.575 2.406,1.614 2.406,3.066c0,2.068 -1.778,3.451 -4.054,3.451c-2.476,0 -3.982,-1.471 -3.982,-3.217c0,-1.5 0.9,-2.555 2.362,-3.18l-0.016,-0.057Z" style="fill:#bbbdc0;fill-rule:nonzero;"/><path d="M162.457,191.891c0,3.095 0.947,4.857 2.409,4.857c1.655,0 2.428,-1.926 2.428,-4.967c0,-2.927 -0.742,-4.847 -2.409,-4.847c-1.408,0 -2.428,1.718 -2.428,4.957Zm6.457,-0.173c0,4.038 -1.504,6.261 -4.14,6.261c-2.317,0 -3.892,-2.172 -3.927,-6.112c0,-3.979 1.717,-6.173 4.136,-6.173c2.507,0 3.931,2.235 3.931,6.024Z" style="fill:#bbbdc0;fill-rule:nonzero;"/><path d="M194.653,145.323l-0.035,0l-2.074,1.114l-0.306,-1.221l2.598,-1.396l1.367,0l0,11.898l-1.55,0l0,-10.395Z" style="fill:#bbbdc0;fill-rule:nonzero;"/><path d="M201.988,149.829c0,3.084 0.953,4.847 2.421,4.847c1.639,0 2.432,-1.92 2.432,-4.961c0,-2.93 -0.755,-4.853 -2.416,-4.853c-1.411,0 -2.437,1.721 -2.437,4.967Zm6.463,-0.186c0,4.044 -1.5,6.273 -4.13,6.273c-2.333,0 -3.899,-2.178 -3.94,-6.112c0,-3.988 1.72,-6.186 4.133,-6.186c2.513,0 3.937,2.239 3.937,6.025Z" style="fill:#bbbdc0;fill-rule:nonzero;"/><path d="M211.374,149.829c0,3.084 0.957,4.847 2.416,4.847c1.648,0 2.434,-1.92 2.434,-4.961c0,-2.93 -0.748,-4.853 -2.409,-4.853c-1.408,0 -2.441,1.721 -2.441,4.967Zm6.458,-0.186c0,4.044 -1.487,6.273 -4.127,6.273c-2.331,0 -3.894,-2.178 -3.941,-6.112c0,-3.988 1.725,-6.186 4.136,-6.186c2.511,0 3.932,2.239 3.932,6.025Z" style="fill:#bbbdc0;fill-rule:nonzero;"/><path d="M254.903,122.274l-0.032,0l-2.062,1.124l-0.309,-1.229l2.589,-1.395l1.377,0l0,11.897l-1.563,0l0,-10.397Z" style="fill:#bbbdc0;fill-rule:nonzero;"/><path d="M260.801,132.671l0,-0.991l1.259,-1.229c3.044,-2.889 4.414,-4.423 4.431,-6.213c0,-1.206 -0.591,-2.324 -2.356,-2.324c-1.08,0 -1.986,0.543 -2.529,1.011l-0.506,-1.137c0.812,-0.698 1.993,-1.21 3.357,-1.21c2.564,0 3.643,1.759 3.643,3.457c0,2.189 -1.587,3.967 -4.101,6.378l-0.944,0.882l0,0.038l5.339,0l0,1.338l-7.593,0Z" style="fill:#bbbdc0;fill-rule:nonzero;"/><path d="M271.637,126.776c0,3.094 0.954,4.85 2.419,4.85c1.635,0 2.424,-1.916 2.424,-4.96c0,-2.927 -0.742,-4.843 -2.409,-4.843c-1.408,0 -2.434,1.711 -2.434,4.953Zm6.454,-0.179c0,4.041 -1.491,6.27 -4.133,6.27c-2.321,0 -3.89,-2.176 -3.931,-6.11c0,-3.988 1.72,-6.179 4.13,-6.179c2.519,0 3.934,2.236 3.934,6.019Z" style="fill:#bbbdc0;fill-rule:nonzero;"/><path d="M325.394,129.846l-0.034,0l-2.074,1.117l-0.304,-1.222l2.596,-1.395l1.367,0l0,11.897l-1.551,0l0,-10.397Z" style="fill:#bbbdc0;fill-rule:nonzero;"/><path d="M336.263,135.743l0,-3.978c0,-0.616 0.025,-1.238 0.05,-1.859l-0.05,0c-0.367,0.694 -0.657,1.203 -0.986,1.754l-2.904,4.049l0,0.034l3.89,0Zm0,4.5l0,-3.246l-5.523,0l0,-1.057l5.308,-7.594l1.73,0l0,7.397l1.673,0l0,1.254l-1.673,0l0,3.246l-1.515,0Z" style="fill:#bbbdc0;fill-rule:nonzero;"/><path d="M342.12,134.351c0,3.087 0.947,4.847 2.421,4.847c1.642,0 2.429,-1.923 2.429,-4.957c0,-2.934 -0.748,-4.853 -2.419,-4.853c-1.406,0 -2.431,1.721 -2.431,4.963Zm6.456,-0.183c0,4.045 -1.499,6.273 -4.129,6.273c-2.327,0 -3.899,-2.178 -3.937,-6.112c0,-3.988 1.723,-6.185 4.135,-6.185c2.501,0 3.931,2.239 3.931,6.024Z" style="fill:#bbbdc0;fill-rule:nonzero;"/><path d="M371.284,159.736l-0.038,0l-2.067,1.125l-0.309,-1.228l2.604,-1.396l1.373,0l0,11.897l-1.563,0l0,-10.398Z" style="fill:#bbbdc0;fill-rule:nonzero;"/><path d="M381.205,169.086c1.377,0 2.308,-1.156 2.308,-2.854c0,-1.696 -0.966,-2.722 -2.453,-2.722c-0.966,0 -1.87,0.6 -2.305,1.462c-0.114,0.18 -0.186,0.423 -0.186,0.716c0.037,1.958 0.938,3.398 2.612,3.398l0.024,0Zm2.764,-9.709c-0.332,-0.022 -0.752,0 -1.202,0.072c-2.528,0.423 -3.86,2.267 -4.131,4.225l0.041,0c0.564,-0.755 1.562,-1.373 2.881,-1.373c2.101,0 3.578,1.521 3.578,3.842c0,2.182 -1.477,4.19 -3.955,4.19c-2.54,0 -4.204,-1.98 -4.204,-5.071c0,-2.343 0.85,-4.184 2.015,-5.358c0.985,-0.97 2.308,-1.569 3.798,-1.749c0.483,-0.077 0.884,-0.098 1.179,-0.098l0,1.32Z" style="fill:#bbbdc0;fill-rule:nonzero;"/><path d="M388.018,164.242c0,3.088 0.942,4.844 2.404,4.844c1.654,0 2.441,-1.917 2.441,-4.954c0,-2.927 -0.749,-4.844 -2.416,-4.844c-1.408,0 -2.429,1.715 -2.429,4.954Zm6.454,-0.18c0,4.038 -1.502,6.271 -4.135,6.271c-2.319,0 -3.9,-2.182 -3.932,-6.112c0,-3.989 1.722,-6.183 4.134,-6.183c2.507,0 3.933,2.238 3.933,6.024Z" style="fill:#bbbdc0;fill-rule:nonzero;"/><path d="M407.914,205.654l-0.042,0l-2.065,1.115l-0.312,-1.225l2.596,-1.388l1.364,0l0,11.894l-1.541,0l0,-10.396Z" style="fill:#bbbdc0;fill-rule:nonzero;"/><path d="M415.624,207.013c0,1.18 0.903,1.822 2.273,2.191c1.027,-0.342 1.81,-1.08 1.81,-2.163c0,-0.941 -0.563,-1.939 -2.002,-1.939c-1.339,0 -2.081,0.884 -2.081,1.911Zm4.436,5.942c0,-1.447 -1.013,-2.138 -2.617,-2.596c-1.392,0.395 -2.141,1.308 -2.141,2.448c-0.06,1.211 0.859,2.269 2.375,2.269c1.445,0 2.383,-0.915 2.383,-2.121Zm-4.059,-3.158c-1.318,-0.631 -1.896,-1.658 -1.896,-2.677c0,-1.888 1.598,-3.164 3.675,-3.164c2.306,0 3.461,1.447 3.461,2.924c0,1.001 -0.486,2.084 -1.951,2.782l0,0.053c1.487,0.584 2.403,1.623 2.403,3.075c0,2.062 -1.777,3.454 -4.054,3.454c-2.482,0 -3.982,-1.483 -3.982,-3.22c0,-1.5 0.891,-2.558 2.356,-3.179l-0.012,-0.048Z" style="fill:#bbbdc0;fill-rule:nonzero;"/><path d="M424.632,210.154c0,3.098 0.954,4.847 2.413,4.847c1.651,0 2.43,-1.92 2.43,-4.957c0,-2.924 -0.741,-4.847 -2.405,-4.847c-1.412,0 -2.438,1.724 -2.438,4.957Zm6.458,-0.18c0,4.044 -1.497,6.27 -4.134,6.27c-2.324,0 -3.893,-2.178 -3.934,-6.109c0,-3.991 1.724,-6.179 4.143,-6.179c2.497,0 3.925,2.232 3.925,6.018Z" style="fill:#bbbdc0;fill-rule:nonzero;"/><path d="M417.165,287.546l0,-0.983l1.266,-1.227c3.035,-2.893 4.408,-4.431 4.423,-6.225c0,-1.199 -0.584,-2.323 -2.358,-2.323c-1.08,0 -1.974,0.553 -2.519,1.01l-0.522,-1.13c0.828,-0.698 1.996,-1.209 3.369,-1.209c2.565,0 3.641,1.752 3.641,3.451c0,2.197 -1.595,3.976 -4.095,6.39l-0.954,0.876l0,0.037l5.347,0l0,1.333l-7.598,0Z" style="fill:#bbbdc0;fill-rule:nonzero;"/><path d="M428.005,281.656c0,3.096 0.95,4.848 2.412,4.848c1.651,0 2.434,-1.917 2.434,-4.958c0,-2.927 -0.752,-4.847 -2.419,-4.847c-1.408,0 -2.427,1.725 -2.427,4.957Zm6.457,-0.183c0,4.048 -1.504,6.278 -4.134,6.278c-2.323,0 -3.899,-2.176 -3.937,-6.111c0,-3.987 1.717,-6.181 4.132,-6.181c2.515,0 3.939,2.228 3.939,6.014Z" style="fill:#bbbdc0;fill-rule:nonzero;"/><path d="M437.389,281.656c0,3.096 0.953,4.848 2.415,4.848c1.648,0 2.437,-1.917 2.437,-4.958c0,-2.927 -0.752,-4.847 -2.415,-4.847c-1.411,0 -2.437,1.725 -2.437,4.957Zm6.462,-0.183c0,4.048 -1.497,6.278 -4.139,6.278c-2.323,0 -3.896,-2.176 -3.934,-6.111c0,-3.987 1.724,-6.181 4.14,-6.181c2.501,0 3.933,2.228 3.933,6.014Z" style="fill:#bbbdc0;fill-rule:nonzero;"/><path d="M403.919,356.693l0,-0.985l1.261,-1.229c3.04,-2.888 4.411,-4.426 4.433,-6.223c0,-1.2 -0.588,-2.321 -2.366,-2.321c-1.079,0 -1.973,0.55 -2.523,1.008l-0.51,-1.135c0.823,-0.694 1.992,-1.205 3.365,-1.205c2.564,0 3.643,1.755 3.643,3.453c0,2.199 -1.59,3.973 -4.101,6.385l-0.953,0.878l0,0.034l5.346,0l0,1.34l-7.595,0Z" style="fill:#bbbdc0;fill-rule:nonzero;"/><path d="M413.309,356.693l0,-0.985l1.264,-1.229c3.034,-2.888 4.414,-4.426 4.43,-6.223c0,-1.2 -0.584,-2.321 -2.362,-2.321c-1.084,0 -1.98,0.55 -2.526,1.008l-0.512,-1.135c0.825,-0.694 1.995,-1.205 3.367,-1.205c2.563,0 3.643,1.755 3.643,3.453c0,2.199 -1.595,3.973 -4.101,6.385l-0.955,0.878l0,0.034l5.343,0l0,1.34l-7.591,0Z" style="fill:#bbbdc0;fill-rule:nonzero;"/><path d="M424.146,350.805c0,3.091 0.948,4.842 2.412,4.842c1.648,0 2.435,-1.92 2.435,-4.957c0,-2.924 -0.752,-4.843 -2.413,-4.843c-1.407,0 -2.434,1.721 -2.434,4.958Zm6.457,-0.187c0,4.047 -1.497,6.273 -4.136,6.273c-2.321,0 -3.9,-2.171 -3.928,-6.102c0,-3.992 1.714,-6.186 4.13,-6.186c2.507,0 3.934,2.229 3.934,6.015Z" style="fill:#bbbdc0;fill-rule:nonzero;"/></svg>