<?xml version="1.0" encoding="UTF-8" standalone="no"?><!DOCTYPE svg PUBLIC "-//W3C//DTD SVG 1.1//EN" "http://www.w3.org/Graphics/SVG/1.1/DTD/svg11.dtd"><svg width="100%" height="100%" viewBox="0 0 47 272" version="1.1" xmlns="http://www.w3.org/2000/svg" xmlns:xlink="http://www.w3.org/1999/xlink" xml:space="preserve" xmlns:serif="http://www.serif.com/" style="fill-rule:evenodd;clip-rule:evenodd;stroke-linejoin:round;stroke-miterlimit:1.41421;"><path d="M34.072,245.177c2.024,6.04 -1.235,12.591 -7.287,14.618c-6.047,2.03 -12.611,-1.228 -14.629,-7.283c-2.027,-6.04 1.232,-12.593 7.281,-14.62c6.056,-2.027 12.599,1.232 14.635,7.285Z" style="fill:#70cddd;fill-rule:nonzero;"/><path d="M19.526,255.948l0.872,-255.948l6.251,255.878l-7.123,0.07Z" style="fill:#70cddd;fill-rule:nonzero;"/><path d="M45.015,241.502c4.058,12.093 -2.45,25.188 -14.556,29.246c-12.099,4.063 -25.195,-2.453 -29.253,-14.559c-4.06,-12.098 2.463,-25.192 14.565,-29.253c12.094,-4.06 25.186,2.463 29.244,14.566Z" style="fill:#70cddd;fill-rule:nonzero;"/></svg>